<?xml version="1.0" standalone="no"?>
<!DOCTYPE svg PUBLIC "-//W3C//DTD SVG 20010904//EN"
 "http://www.w3.org/TR/2001/REC-SVG-20010904/DTD/svg10.dtd">
<svg version="1.0" xmlns="http://www.w3.org/2000/svg"
 width="125.000000pt" height="142.000000pt" viewBox="0 0 125.000000 142.000000"
 preserveAspectRatio="xMidYMid meet">

<g transform="translate(0.000000,114.000000) scale(0.100000,-0.100000)"
fill="#000000" stroke="none">
<path d="M137 1115 c-50 -17 -82 -47 -108 -101 -35 -72 4 -92 43 -22 34 61 67
81 140 86 73 5 92 17 64 38 -25 18 -89 17 -139 -1z"/>
<path d="M740 1111 c0 -15 12 -20 66 -29 78 -13 118 -44 136 -105 12 -41 32
-57 50 -39 13 13 -12 87 -44 128 -30 37 -93 64 -155 64 -45 0 -53 -3 -53 -19z"/>
<path d="M164 896 c-106 -47 -96 -194 15 -227 53 -16 121 14 144 64 21 44 21
60 1 102 -28 60 -101 87 -160 61z"/>
<path d="M770 897 c-41 -14 -80 -68 -80 -111 0 -72 76 -135 147 -121 105 19
138 155 53 216 -35 24 -79 30 -120 16z"/>
<path d="M434 531 c-158 -72 -193 -322 -62 -448 112 -107 283 -71 355 76 25
53 30 171 8 228 -50 131 -186 196 -301 144z m173 -87 c94 -72 97 -239 4 -317
-62 -52 -147 -44 -199 19 -71 86 -67 209 9 285 57 57 123 61 186 13z"/>
</g>
</svg>
